<svg id="visual" viewBox="0 0 960 540" width="960" height="540" xmlns="http://www.w3.org/2000/svg" xmlns:xlink="http://www.w3.org/1999/xlink" version="1.1"><rect x="0" y="0" width="960" height="540" fill="#0a9396"></rect><path d="M0 277L22.8 261.7C45.7 246.3 91.3 215.7 137 216.3C182.7 217 228.3 249 274 270.3C319.7 291.7 365.3 302.3 411.2 293.7C457 285 503 257 548.8 249.3C594.7 241.7 640.3 254.3 686 246.7C731.7 239 777.3 211 823 216.8C868.7 222.7 914.3 262.3 937.2 282.2L960 302L960 541L937.2 541C914.3 541 868.7 541 823 541C777.3 541 731.7 541 686 541C640.3 541 594.7 541 548.8 541C503 541 457 541 411.2 541C365.3 541 319.7 541 274 541C228.3 541 182.7 541 137 541C91.3 541 45.7 541 22.8 541L0 541Z" fill="#005f73"></path><path d="M0 259L22.8 267.2C45.7 275.3 91.3 291.7 137 301.8C182.7 312 228.3 316 274 312.7C319.7 309.3 365.3 298.7 411.2 292C457 285.3 503 282.7 548.8 290.5C594.7 298.3 640.3 316.7 686 310.8C731.7 305 777.3 275 823 261.7C868.7 248.3 914.3 251.7 937.2 253.3L960 255L960 541L937.2 541C914.3 541 868.7 541 823 541C777.3 541 731.7 541 686 541C640.3 541 594.7 541 548.8 541C503 541 457 541 411.2 541C365.3 541 319.7 541 274 541C228.3 541 182.7 541 137 541C91.3 541 45.7 541 22.8 541L0 541Z" fill="#084a5b"></path><path d="M0 331L22.8 329C45.7 327 91.3 323 137 323.3C182.7 323.7 228.3 328.3 274 333.7C319.7 339 365.3 345 411.2 353C457 361 503 371 548.8 373.8C594.7 376.7 640.3 372.3 686 361.7C731.7 351 777.3 334 823 331.5C868.7 329 914.3 341 937.2 347L960 353L960 541L937.2 541C914.3 541 868.7 541 823 541C777.3 541 731.7 541 686 541C640.3 541 594.7 541 548.8 541C503 541 457 541 411.2 541C365.3 541 319.7 541 274 541C228.3 541 182.7 541 137 541C91.3 541 45.7 541 22.8 541L0 541Z" fill="#0a3644"></path><path d="M0 378L22.8 390.3C45.7 402.7 91.3 427.3 137 431.2C182.7 435 228.3 418 274 409.2C319.7 400.3 365.3 399.7 411.2 406.2C457 412.7 503 426.3 548.8 422.8C594.7 419.3 640.3 398.7 686 397.8C731.7 397 777.3 416 823 421.3C868.7 426.7 914.3 418.3 937.2 414.2L960 410L960 541L937.2 541C914.3 541 868.7 541 823 541C777.3 541 731.7 541 686 541C640.3 541 594.7 541 548.8 541C503 541 457 541 411.2 541C365.3 541 319.7 541 274 541C228.3 541 182.7 541 137 541C91.3 541 45.7 541 22.8 541L0 541Z" fill="#09242e"></path><path d="M0 483L22.8 485.7C45.7 488.3 91.3 493.7 137 488C182.7 482.3 228.3 465.7 274 461.7C319.7 457.7 365.3 466.3 411.2 467.3C457 468.3 503 461.7 548.8 459.3C594.7 457 640.3 459 686 459.3C731.7 459.7 777.3 458.3 823 459.2C868.7 460 914.3 463 937.2 464.5L960 466L960 541L937.2 541C914.3 541 868.7 541 823 541C777.3 541 731.7 541 686 541C640.3 541 594.7 541 548.8 541C503 541 457 541 411.2 541C365.3 541 319.7 541 274 541C228.3 541 182.7 541 137 541C91.3 541 45.7 541 22.8 541L0 541Z" fill="#001219">
</path>
</svg>